<svg xmlns="http://www.w3.org/2000/svg" xmlns:xlink="http://www.w3.org/1999/xlink" version="1.1" x="0px" y="0px" viewBox="0 0 100 125" enable-background="new 0 0 100 100" xml:space="preserve" fill="#D97D54" ><g><path d="M91.446,77.087c-26.25,0-35.598-13.385-35.624-24.848c-0.021-8.546,4.989-15.264,11.406-15.296c0.005,0,0.012,0,0.018,0   c0.947,0,1.857,0.375,2.529,1.045c0.675,0.675,1.055,1.59,1.055,2.545c0,2.293,1.862,4.157,4.151,4.157s4.151-1.865,4.151-4.157   c0-3.086-1.085-10.267-11.128-10.267c-16.792,0-23.31,11.396-30.212,23.46C31.221,65.211,24.426,77.087,8.614,77.087   c-1.979,0-3.584-1.607-3.584-3.589s1.605-3.589,3.584-3.589c11.659,0,16.895-9.152,22.958-19.751   c7.259-12.689,15.486-27.07,36.431-27.07c13.504,0,18.295,9.398,18.295,17.446c0,6.25-5.078,11.336-11.318,11.336   c-4.394,0-8.212-2.522-10.086-6.196c-1.088,1.458-1.911,3.821-1.904,6.548c0.019,8.55,7.507,17.686,28.457,17.686   c1.979,0,3.584,1.607,3.584,3.589S93.426,77.087,91.446,77.087z"/></g><text x="0" y="115" fill="#D97D54" font-size="5px" font-weight="bold" font-family="'Helvetica Neue', Helvetica, Arial-Unicode, Arial, Sans-serif">Created by Alex Parisi</text><text x="0" y="120" fill="#D97D54" font-size="5px" font-weight="bold" font-family="'Helvetica Neue', Helvetica, Arial-Unicode, Arial, Sans-serif">from the Noun Project</text></svg>